<svg width="1440" height="960" viewBox="0 0 1440 960" fill="none" xmlns="http://www.w3.org/2000/svg">
  <rect width="1440" height="960" fill="#F4F6FA"/>
  <rect x="0" y="0" width="1440" height="82" fill="#FFFFFF"/>
  <line x1="0" y1="82" x2="1440" y2="82" stroke="#DDE3EE"/>
  <text x="80" y="55" fill="#64748B" font-family="Inter, Arial, sans-serif" font-size="16">Overview</text>
  <text x="196" y="55" fill="#1D4ED8" font-family="Inter, Arial, sans-serif" font-size="16" font-weight="700">Load Review</text>
  <text x="334" y="55" fill="#64748B" font-family="Inter, Arial, sans-serif" font-size="16">Call Intelligence</text>
  <rect x="196" y="78" width="104" height="4" fill="#2563EB"/>

  <text x="80" y="150" fill="#0F172A" font-family="Inter, Arial, sans-serif" font-size="26" font-weight="800">Load Review Workflow</text>
  <rect x="80" y="178" width="520" height="44" rx="8" fill="#FFFFFF" stroke="#CBD5E1"/>
  <text x="104" y="206" fill="#94A3B8" font-family="Inter, Arial, sans-serif" font-size="16">Search by origin...</text>
  <rect x="620" y="178" width="520" height="44" rx="8" fill="#FFFFFF" stroke="#CBD5E1"/>
  <text x="644" y="206" fill="#94A3B8" font-family="Inter, Arial, sans-serif" font-size="16">Search by destination...</text>
  <rect x="1164" y="178" width="196" height="44" rx="8" fill="#2563EB"/>
  <text x="1220" y="206" fill="#FFFFFF" font-family="Inter, Arial, sans-serif" font-size="15" font-weight="700">Search</text>
  <text x="80" y="258" fill="#64748B" font-family="Inter, Arial, sans-serif" font-size="18">Showing 2 priority loads</text>

  <g>
    <rect x="80" y="300" width="596" height="322" rx="8" fill="#FFFFFF" stroke="#DDE3EE"/>
    <text x="112" y="360" fill="#0F172A" font-family="Inter, Arial, sans-serif" font-size="24" font-weight="800">LD-1042</text>
    <rect x="552" y="329" width="84" height="30" rx="8" fill="#DBEAFE"/>
    <text x="594" y="350" fill="#1D4ED8" font-family="Inter, Arial, sans-serif" font-size="13" font-weight="800" text-anchor="middle">dry van</text>
    <text x="112" y="416" fill="#475569" font-family="Inter, Arial, sans-serif" font-size="17">Los Angeles, CA to Dallas, TX</text>
    <text x="112" y="454" fill="#475569" font-family="Inter, Arial, sans-serif" font-size="17">Pickup: Apr 30, 2026 at 08:00</text>
    <text x="112" y="492" fill="#475569" font-family="Inter, Arial, sans-serif" font-size="17">Delivery: May 02, 2026 at 14:00</text>
    <line x1="112" y1="528" x2="636" y2="528" stroke="#E2E8F0"/>
    <text x="112" y="572" fill="#059669" font-family="Inter, Arial, sans-serif" font-size="16" font-weight="700">Rate</text>
    <text x="112" y="604" fill="#0F172A" font-family="Inter, Arial, sans-serif" font-size="24" font-weight="800">$2,500</text>
    <text x="380" y="572" fill="#64748B" font-family="Inter, Arial, sans-serif" font-size="16" font-weight="700">Miles</text>
    <text x="380" y="604" fill="#0F172A" font-family="Inter, Arial, sans-serif" font-size="24" font-weight="800">1,430 mi</text>
  </g>

  <g>
    <rect x="704" y="300" width="596" height="322" rx="8" fill="#FFFFFF" stroke="#DDE3EE"/>
    <text x="736" y="360" fill="#0F172A" font-family="Inter, Arial, sans-serif" font-size="24" font-weight="800">LD-1043</text>
    <rect x="1176" y="329" width="84" height="30" rx="8" fill="#DBEAFE"/>
    <text x="1218" y="350" fill="#1D4ED8" font-family="Inter, Arial, sans-serif" font-size="13" font-weight="800" text-anchor="middle">reefer</text>
    <text x="736" y="416" fill="#475569" font-family="Inter, Arial, sans-serif" font-size="17">Phoenix, AZ to Denver, CO</text>
    <text x="736" y="454" fill="#475569" font-family="Inter, Arial, sans-serif" font-size="17">Pickup: Apr 30, 2026 at 10:00</text>
    <text x="736" y="492" fill="#475569" font-family="Inter, Arial, sans-serif" font-size="17">Delivery: May 01, 2026 at 18:00</text>
    <line x1="736" y1="528" x2="1260" y2="528" stroke="#E2E8F0"/>
    <text x="736" y="572" fill="#059669" font-family="Inter, Arial, sans-serif" font-size="16" font-weight="700">Rate</text>
    <text x="736" y="604" fill="#0F172A" font-family="Inter, Arial, sans-serif" font-size="24" font-weight="800">$2,200</text>
    <text x="1004" y="572" fill="#64748B" font-family="Inter, Arial, sans-serif" font-size="16" font-weight="700">Miles</text>
    <text x="1004" y="604" fill="#0F172A" font-family="Inter, Arial, sans-serif" font-size="24" font-weight="800">860 mi</text>
  </g>
</svg>
